<?xml version="1.0" standalone="no"?>
<!DOCTYPE svg PUBLIC "-//W3C//DTD SVG 20010904//EN"
 "http://www.w3.org/TR/2001/REC-SVG-20010904/DTD/svg10.dtd">
<svg version="1.0" xmlns="http://www.w3.org/2000/svg"
 width="1321.000000pt" height="1321.000000pt" viewBox="0 0 1321.000000 1321.000000"
 preserveAspectRatio="xMidYMid meet">
<metadata>
Created by potrace 1.14, written by Peter Selinger 2001-2017
</metadata>
<g transform="translate(0.000000,1321.000000) scale(0.100000,-0.100000)"
fill="#000000" stroke="none">
<path d="M6145 12914 c-224 -34 -394 -100 -560 -219 -100 -71 -191 -159 -310
-300 -208 -247 -363 -361 -612 -451 -350 -127 -748 -180 -1423 -190 -195 -3
-375 -10 -400 -15 -143 -33 -177 -155 -90 -322 359 -689 1107 -1244 1862
-1383 123 -22 133 -33 141 -148 13 -168 39 -231 110 -267 31 -16 53 -20 94
-17 60 5 95 26 132 79 22 32 23 40 17 129 -3 52 -9 109 -11 125 -9 50 3 57
120 67 132 12 133 11 169 -122 13 -52 34 -122 46 -155 26 -71 24 -169 -5 -225
-10 -19 -61 -93 -113 -164 -165 -223 -251 -372 -326 -566 -21 -52 -45 -101
-54 -107 -11 -9 -67 -13 -194 -13 l-177 0 -41 55 c-46 62 -62 73 -123 81 -57
8 -125 -21 -159 -67 -68 -90 -179 -474 -220 -754 -19 -131 -16 -522 5 -653 99
-620 355 -1113 793 -1532 665 -635 1510 -901 2465 -775 402 53 723 165 1062
371 219 133 513 367 548 437 54 105 -30 247 -146 247 -58 -1 -109 -29 -200
-110 -362 -325 -798 -525 -1310 -601 -77 -11 -194 -21 -260 -22 l-120 -2 -3
91 c-2 78 0 93 16 108 11 9 87 34 169 56 338 88 575 206 810 404 214 179 402
443 528 741 26 61 56 119 66 130 18 19 35 20 272 23 163 2 263 -1 281 -8 l28
-10 -7 -85 c-8 -104 3 -141 55 -189 43 -38 90 -52 147 -41 49 9 117 77 131
130 26 98 93 695 99 875 18 590 -145 1132 -503 1670 -165 249 -381 485 -614
670 -228 181 -610 409 -740 442 -114 28 -210 -44 -210 -157 0 -90 34 -126 217
-224 403 -216 692 -450 942 -761 142 -177 343 -503 326 -530 -4 -6 -81 -10
-209 -10 -191 0 -205 1 -230 21 -14 11 -26 26 -26 32 0 7 -27 67 -59 134 -165
340 -449 665 -748 856 -162 104 -342 180 -549 232 -174 44 -190 53 -213 127
-14 44 -67 93 -110 103 -92 20 -182 -38 -201 -130 -6 -29 -19 -60 -29 -69 -10
-10 -72 -30 -137 -46 -143 -36 -200 -68 -231 -130 -13 -24 -23 -58 -23 -74 0
-45 37 -113 75 -136 53 -33 94 -35 204 -10 54 13 106 20 115 17 14 -6 16 -55
16 -455 0 -367 -2 -452 -14 -461 -9 -8 -173 -10 -592 -9 -528 3 -579 4 -582
19 -2 9 23 63 55 120 l58 104 -2 85 c-4 115 3 144 39 186 41 46 77 64 133 64
64 0 93 -18 212 -131 127 -120 184 -153 259 -147 96 8 160 80 152 169 -7 69
-34 102 -195 245 -197 174 -216 197 -237 274 -63 243 -103 427 -96 440 5 9 58
37 118 63 437 190 689 456 1158 1219 164 267 160 263 301 279 108 12 241 45
281 69 74 45 80 115 14 170 -20 17 -86 56 -147 86 -60 31 -114 59 -118 63 -5
5 63 46 150 91 197 102 211 112 219 154 9 50 -17 91 -76 121 -69 35 -223 73
-340 84 -54 5 -109 15 -122 21 -12 7 -68 58 -123 114 -148 150 -277 229 -451
276 -61 16 -115 22 -234 25 -85 2 -168 1 -185 -1z m297 -343 c179 -46 327
-159 398 -305 81 -165 76 -326 -17 -510 -49 -97 -133 -230 -335 -532 -208
-310 -253 -369 -384 -494 -282 -270 -605 -391 -1039 -392 -497 0 -916 147
-1345 470 -190 144 -475 439 -538 559 -24 45 -4 49 251 52 151 1 243 -1 255
-8 11 -6 49 -48 85 -94 119 -152 302 -304 466 -387 288 -145 667 -159 937 -35
208 95 352 247 479 503 92 186 101 243 55 320 -33 53 -75 74 -146 70 -83 -5
-126 -37 -166 -127 -96 -213 -119 -253 -197 -332 -59 -60 -95 -87 -152 -114
-237 -112 -510 -78 -774 98 -69 46 -155 125 -155 144 0 7 17 15 38 18 670 106
1026 281 1326 650 157 194 274 294 441 376 55 27 134 58 175 69 101 26 243 26
342 1z m554 -2987 c364 -105 681 -343 911 -684 64 -94 135 -229 128 -241 -8
-12 -1155 -12 -1175 1 -13 8 -15 70 -15 462 0 249 3 461 7 471 10 23 40 22
144 -9z m-2139 -1290 c3 -8 -1 -65 -8 -127 -9 -71 -14 -212 -14 -387 1 -241 3
-291 23 -403 18 -100 21 -131 11 -143 -9 -11 -53 -14 -234 -14 -199 0 -224 2
-238 18 -46 51 -67 514 -33 732 20 129 63 309 78 327 8 10 57 13 210 13 170 0
199 -2 205 -16z m1641 4 c9 -9 12 -141 12 -535 0 -506 -1 -523 -19 -533 -13
-6 -225 -10 -620 -10 -600 0 -600 0 -620 21 -23 25 -46 116 -68 273 -27 197
-3 702 38 778 9 17 43 18 637 18 475 0 631 -3 640 -12z m1635 -6 c9 -10 23
-50 32 -90 56 -269 60 -593 9 -915 -11 -72 34 -67 -669 -67 l-635 0 -15 24
c-14 20 -15 87 -13 535 3 442 5 513 18 521 9 6 262 10 636 10 585 0 622 -1
637 -18z m857 8 c34 -18 88 -234 110 -442 20 -192 4 -567 -26 -616 l-15 -22
-267 2 -267 3 0 65 c0 36 6 148 13 250 13 206 6 412 -23 617 -10 67 -15 129
-12 137 6 14 37 16 237 16 138 0 239 -4 250 -10z m-2510 -1433 l25 -13 0 -459
0 -460 -25 -3 c-36 -4 -187 51 -303 110 -179 92 -312 199 -454 366 -95 112
-138 142 -203 142 -51 0 -88 -19 -128 -65 -58 -66 -57 -144 4 -233 57 -83 235
-264 339 -345 191 -148 434 -264 685 -327 84 -21 90 -30 90 -121 0 -87 -10
-119 -39 -119 -29 0 -227 47 -357 84 -681 196 -1236 651 -1543 1263 -79 159
-85 174 -69 185 7 4 450 8 983 8 762 0 975 -3 995 -13z m1565 0 c24 -19 13
-49 -66 -182 -91 -152 -174 -257 -296 -376 -177 -171 -376 -290 -624 -372
-140 -47 -169 -52 -194 -33 -19 14 -20 28 -23 475 -3 451 -2 461 18 481 20 20
31 20 593 20 465 0 577 -3 592 -13z"/>
<path d="M6443 12239 c-79 -23 -135 -127 -113 -209 20 -75 86 -130 155 -130
147 0 226 182 128 291 -48 53 -102 68 -170 48z"/>
<path d="M9032 9869 c-87 -17 -132 -72 -132 -162 0 -64 26 -110 79 -141 30
-17 61 -21 205 -27 192 -9 266 -25 402 -88 284 -133 471 -376 573 -743 53
-191 51 -105 52 -2115 0 -1433 -2 -1868 -11 -1879 -11 -12 -489 -14 -3605 -14
-3407 0 -3594 1 -3614 17 l-22 18 3 1840 3 1840 23 75 c93 303 313 522 615
612 67 20 102 22 477 27 381 6 407 7 439 26 51 30 74 67 78 127 6 73 -26 133
-88 166 l-44 23 -415 -4 c-332 -4 -428 -8 -480 -20 -233 -57 -395 -145 -569
-312 -184 -175 -293 -370 -354 -630 -21 -89 -21 -103 -27 -1937 -3 -1015 -9
-1850 -13 -1855 -5 -4 -201 -10 -435 -13 -462 -5 -457 -5 -508 -62 -37 -40
-46 -69 -46 -140 2 -143 52 -329 128 -466 149 -273 443 -467 804 -533 63 -12
724 -14 4020 -14 3796 0 3949 1 4050 19 390 68 671 262 829 571 47 91 95 232
111 325 22 121 -10 230 -78 272 -37 23 -40 23 -469 28 -336 4 -435 8 -445 18
-11 11 -14 374 -19 1910 -5 2041 -3 1938 -59 2159 -133 514 -465 892 -910
1036 -156 51 -415 73 -548 46z m2125 -5514 c34 -8 37 -39 9 -101 -104 -228
-331 -385 -609 -423 -109 -15 -2647 -15 -2647 0 0 5 16 31 36 57 61 80 132
238 157 351 13 58 30 109 39 115 11 8 426 10 1504 8 819 -1 1499 -4 1511 -7z
m-6058 -14 c11 -11 22 -41 26 -72 16 -119 96 -284 182 -380 34 -37 43 -69 21
-69 -7 0 -612 0 -1345 0 -1436 0 -1397 -1 -1545 53 -103 37 -174 84 -264 172
-108 107 -201 268 -173 301 10 12 246 14 1545 14 1491 0 1535 -1 1553 -19z
m2581 -232 c0 -22 -72 -109 -118 -142 -65 -48 -118 -73 -182 -86 -40 -9 -248
-11 -780 -9 l-725 3 -55 23 c-31 13 -82 43 -114 67 -64 48 -139 132 -130 146
8 14 2104 12 2104 -2z"/>
<path d="M1810 3023 c-120 -103 -528 -718 -769 -1160 -133 -245 -248 -505
-322 -731 -76 -233 -63 -342 40 -342 52 0 72 26 101 132 56 207 164 486 272
703 172 342 297 545 633 1025 87 124 164 239 171 257 22 51 18 106 -9 131 -34
32 -67 27 -117 -15z"/>
<path d="M2463 3045 c-12 -9 -28 -38 -37 -68 -18 -61 -54 -99 -138 -146 -140
-79 -238 -173 -238 -231 0 -40 35 -80 71 -80 16 0 57 14 91 31 l61 31 -7 -34
c-3 -18 -69 -160 -145 -315 -148 -299 -148 -299 -218 -294 -40 2 -91 -41 -99
-84 -4 -23 2 -41 27 -78 l32 -49 -30 -66 c-17 -37 -65 -139 -106 -227 -103
-220 -214 -502 -228 -579 -11 -56 -10 -67 7 -102 32 -65 106 -81 139 -30 8 12
52 121 99 241 82 217 255 618 284 663 25 38 49 44 176 43 315 -4 592 114 851
360 176 169 269 336 295 531 20 149 -20 271 -122 370 -115 112 -234 132 -473
79 l-140 -31 -17 22 c-37 49 -49 58 -81 58 -18 0 -42 -7 -54 -15z m676 -235
c63 -35 86 -79 85 -160 -2 -139 -73 -269 -234 -430 -163 -164 -318 -264 -505
-326 -134 -44 -315 -44 -315 1 0 8 62 144 139 302 133 276 182 387 196 445 10
40 72 106 125 133 80 40 218 65 350 62 101 -2 120 -5 159 -27z"/>
<path d="M6018 2877 c-48 -29 -68 -56 -197 -272 -125 -209 -253 -443 -327
-601 -29 -62 -57 -115 -63 -119 -6 -3 -34 1 -63 11 -132 43 -271 -15 -429
-182 -103 -110 -177 -244 -224 -409 -50 -175 -41 -312 26 -405 40 -55 79 -73
150 -68 79 6 145 57 241 187 40 55 75 100 78 100 3 1 11 -33 18 -75 19 -120
73 -202 155 -233 32 -13 61 -2 89 33 28 34 22 72 -17 111 -47 48 -61 79 -70
151 -8 72 14 212 50 319 87 261 321 725 587 1167 129 214 137 240 93 283 -30
31 -50 31 -97 2z m-680 -1139 c7 -7 12 -19 12 -27 0 -23 -149 -346 -194 -421
-50 -82 -88 -133 -145 -192 -38 -40 -51 -48 -82 -48 -65 0 -86 40 -75 140 13
114 70 249 158 377 59 85 114 138 172 164 46 21 136 25 154 7z"/>
<path d="M6951 2882 c-19 -9 -47 -33 -62 -52 -60 -75 -285 -464 -399 -691 -66
-131 -128 -242 -137 -248 -12 -6 -30 -4 -56 6 -58 24 -164 12 -242 -26 -176
-87 -358 -341 -420 -585 -65 -256 8 -456 166 -456 84 0 162 61 281 218 27 34
52 62 57 62 4 0 11 -30 15 -66 4 -37 16 -84 26 -105 46 -90 125 -148 174 -129
25 9 66 63 66 87 0 7 -20 35 -44 62 -24 27 -49 66 -56 87 -19 58 -7 221 25
329 75 256 292 694 593 1199 143 241 150 262 95 306 -31 24 -39 25 -82 2z
m-691 -1147 c17 -20 10 -41 -73 -220 -121 -262 -258 -456 -333 -471 -74 -14
-102 74 -70 218 19 87 61 173 146 302 87 131 164 185 266 186 35 0 56 -5 64
-15z"/>
<path d="M9270 1984 c-173 -46 -347 -182 -395 -309 -13 -34 -16 -64 -13 -122
6 -89 37 -169 108 -272 84 -125 101 -206 57 -272 -46 -69 -143 -75 -218 -12
-73 62 -87 161 -42 294 27 79 27 81 8 95 -30 22 -52 17 -96 -23 -49 -45 -73
-89 -89 -168 -24 -114 13 -256 83 -323 71 -67 184 -101 281 -83 160 30 259
143 259 296 0 80 -17 127 -90 244 -60 96 -92 176 -93 227 -1 133 170 280 340
292 62 4 68 3 84 -19 21 -31 20 -57 -3 -95 -27 -44 -76 -71 -178 -99 -116 -32
-149 -73 -107 -133 21 -30 81 -29 173 2 191 64 306 194 306 343 0 71 -20 107
-76 135 -43 23 -218 24 -299 2z"/>
<path d="M10170 1984 c-149 -39 -315 -156 -375 -265 -27 -49 -30 -62 -30 -144
1 -107 21 -165 92 -271 90 -134 113 -216 80 -281 -45 -86 -163 -92 -238 -13
-64 67 -74 173 -27 295 25 67 20 85 -26 85 -48 0 -88 -37 -128 -118 -28 -57
-33 -76 -32 -142 0 -161 78 -289 195 -324 127 -38 258 -11 350 72 65 59 88
108 89 189 0 81 -19 133 -92 256 -65 109 -98 191 -98 242 0 85 111 215 218
255 126 48 197 43 216 -13 8 -23 6 -36 -9 -65 -31 -57 -74 -81 -223 -121 -54
-15 -82 -42 -82 -80 0 -83 128 -80 293 6 123 65 207 186 207 301 0 62 -29 108
-83 132 -52 24 -213 26 -297 4z"/>
<path d="M12050 1985 c-164 -40 -332 -164 -389 -285 -20 -44 -25 -69 -25 -130
1 -93 21 -146 103 -278 99 -160 111 -209 68 -273 -48 -72 -131 -85 -210 -33
-53 35 -77 90 -77 183 0 59 5 86 27 134 l27 60 -23 19 c-45 36 -102 -1 -151
-97 -33 -66 -35 -75 -35 -170 1 -113 21 -174 78 -233 82 -86 232 -117 351 -72
85 32 169 116 190 189 9 30 16 66 16 81 0 53 -33 137 -95 240 -124 208 -125
287 -4 415 66 70 141 106 232 113 82 6 107 -10 107 -68 0 -53 -65 -113 -147
-135 -119 -33 -137 -41 -156 -66 -32 -44 -1 -99 56 -99 43 0 169 35 220 62 23
11 67 45 99 76 137 130 154 303 36 361 -37 17 -61 21 -144 20 -54 0 -124 -7
-154 -14z"/>
<path d="M4389 1947 c-109 -37 -261 -168 -364 -312 -128 -178 -228 -465 -210
-599 10 -74 32 -122 71 -156 41 -36 70 -44 134 -38 67 7 128 53 215 162 l70
88 11 -79 c20 -149 96 -234 211 -236 52 0 79 21 89 71 6 29 2 36 -32 65 -107
90 -124 112 -124 158 0 102 70 314 155 474 l43 80 -2 130 c-1 106 -5 135 -19
157 -41 60 -135 74 -248 35z m110 -193 c17 -14 31 -30 31 -35 0 -6 -16 -31
-35 -56 -19 -25 -71 -119 -114 -209 -147 -302 -248 -427 -332 -409 -37 8 -49
31 -49 92 0 69 23 148 73 256 55 116 112 203 191 286 96 100 175 126 235 75z"/>
<path d="M7404 1861 c-49 -32 -165 -122 -258 -200 -93 -78 -173 -141 -178
-141 -20 0 -3 30 75 134 118 157 120 163 87 196 -79 79 -234 -75 -399 -398
-100 -197 -231 -543 -231 -612 0 -56 77 -84 121 -45 11 11 41 58 66 105 76
139 132 229 206 330 75 101 229 260 253 260 8 0 16 -15 20 -39 18 -111 91
-145 225 -105 148 44 349 195 349 263 0 16 -30 41 -51 41 -11 0 -60 -24 -110
-54 -97 -59 -176 -90 -203 -80 -19 7 -30 44 -22 71 3 11 56 68 116 128 87 86
110 114 110 136 0 30 -40 69 -70 69 -9 0 -57 -27 -106 -59z"/>
<path d="M8205 1906 c-132 -42 -293 -178 -440 -371 -115 -151 -174 -415 -119
-535 72 -157 264 -188 482 -77 202 104 462 350 462 440 0 25 -28 57 -49 57 -8
0 -77 -62 -155 -139 -183 -178 -264 -231 -384 -247 -71 -9 -117 2 -157 38 -45
39 -48 86 -9 117 15 12 32 21 38 21 25 0 174 79 233 124 166 125 290 307 300
439 4 54 2 66 -18 91 -41 52 -105 67 -184 42z m33 -188 c20 -20 15 -33 -48
-126 -72 -108 -143 -175 -228 -215 -93 -44 -103 -33 -53 59 69 128 162 230
256 282 26 15 58 15 73 0z"/>
<path d="M10985 1906 c-74 -24 -142 -65 -226 -134 -228 -189 -362 -429 -362
-647 0 -94 24 -156 81 -206 51 -45 98 -62 172 -63 191 0 447 151 632 373 67
81 78 100 78 132 0 47 -27 67 -62 48 -12 -7 -76 -67 -143 -134 -133 -135 -204
-186 -309 -223 -53 -18 -84 -23 -129 -20 -55 4 -63 8 -98 46 -59 63 -50 101
31 132 229 87 408 246 501 443 69 148 36 253 -84 263 -23 2 -60 -2 -82 -10z
m33 -207 c4 -33 -63 -134 -143 -215 -87 -88 -225 -161 -225 -120 0 68 155 267
265 340 52 35 99 33 103 -5z"/>
</g>
</svg>
