<?xml version="1.0" encoding="UTF-8" standalone="no" ?>
<!DOCTYPE svg PUBLIC "-//W3C//DTD SVG 1.1//EN" "http://www.w3.org/Graphics/SVG/1.1/DTD/svg11.dtd">
<svg xmlns="http://www.w3.org/2000/svg" xmlns:xlink="http://www.w3.org/1999/xlink" version="1.1" width="1321" height="1320" viewBox="0 0 1321 1320" xml:space="preserve">
<desc>Created with Fabric.js 5.3.0</desc>
<defs>
</defs>
<g transform="matrix(1 0 0 1 660.5 660)" id="33P9ZWOuCRyQ30caY5jhm"  >
<g style=""   >
		<g transform="matrix(2.070675038 0 0 2.070675038 -501.3784479461 500.7258492115)" id="oj17Dj7SGxHPiudh9QyX7"  >
<path style="stroke: rgb(0,224,92); stroke-width: 0; stroke-dasharray: none; stroke-linecap: butt; stroke-dashoffset: 0; stroke-linejoin: miter; stroke-miterlimit: 4; fill: rgb(255,255,255); fill-rule: nonzero; opacity: 1;"  transform=" translate(0, 0)" d="M 0 -76.91895 C 42.45926 -76.91895 76.91895 -42.45925999999999 76.91895 0 C 76.91895 42.45926 42.45925999999999 76.91895 0 76.91895 C -42.45926 76.91895 -76.91895 42.45925999999999 -76.91895 0 C -76.91895 -42.45926 -42.45925999999999 -76.91895 0 -76.91895 z" stroke-linecap="round" />
</g>
		<g transform="matrix(2.070675038 0 0 2.070675038 500.0732515512 500.7258502858)" id="MsUZtU35LnaAlQSK_XVNP"  >
<path style="stroke: rgb(0,224,92); stroke-width: 0; stroke-dasharray: none; stroke-linecap: butt; stroke-dashoffset: 0; stroke-linejoin: miter; stroke-miterlimit: 4; fill: rgb(255,255,255); fill-rule: nonzero; opacity: 1;"  transform=" translate(0, 0)" d="M 0 -76.91895 C 42.45926 -76.91895 76.91895 -42.45925999999999 76.91895 0 C 76.91895 42.45926 42.45925999999999 76.91895 0 76.91895 C -42.45926 76.91895 -76.91895 42.45925999999999 -76.91895 0 C -76.91895 -42.45926 -42.45925999999999 -76.91895 0 -76.91895 z" stroke-linecap="round" />
</g>
		<g transform="matrix(2.070675038 0 0 2.070675038 501.3784490204 -500)" id="JMmBC_sRqNxNGLzSBLYSQ"  >
<path style="stroke: rgb(0,224,92); stroke-width: 0; stroke-dasharray: none; stroke-linecap: butt; stroke-dashoffset: 0; stroke-linejoin: miter; stroke-miterlimit: 4; fill: rgb(255,255,255); fill-rule: nonzero; opacity: 1;"  transform=" translate(0, 0)" d="M 0 -76.91895 C 42.45926 -76.91895 76.91895 -42.45925999999999 76.91895 0 C 76.91895 42.45926 42.45925999999999 76.91895 0 76.91895 C -42.45926 76.91895 -76.91895 42.45925999999999 -76.91895 0 C -76.91895 -42.45926 -42.45925999999999 -76.91895 0 -76.91895 z" stroke-linecap="round" />
</g>
		<g transform="matrix(2.070675038 0 0 2.070675038 -501.3784490204 -500.7258502858)" id="f_Y2iQekA63V9cfYlV1Oh"  >
<path style="stroke: rgb(0,224,92); stroke-width: 0; stroke-dasharray: none; stroke-linecap: butt; stroke-dashoffset: 0; stroke-linejoin: miter; stroke-miterlimit: 4; fill: rgb(255,255,255); fill-rule: nonzero; opacity: 1;"  transform=" translate(0, 0)" d="M 0 -76.91895 C 42.45926 -76.91895 76.91895 -42.45925999999999 76.91895 0 C 76.91895 42.45926 42.45925999999999 76.91895 0 76.91895 C -42.45926 76.91895 -76.91895 42.45925999999999 -76.91895 0 C -76.91895 -42.45926 -42.45925999999999 -76.91895 0 -76.91895 z" stroke-linecap="round" />
</g>
		<g transform="matrix(1.3766871132 0 0 1.0530566215 -0.4999993945 -4.8477340284)" id="1HV9bspF5IzlC4xlOP38w"  >
<path style="stroke: rgb(235,247,4); stroke-width: 0; stroke-dasharray: none; stroke-linecap: butt; stroke-dashoffset: 0; stroke-linejoin: miter; stroke-miterlimit: 4; fill: rgb(255,255,255); fill-rule: nonzero; opacity: 1;"  transform=" translate(0, 0)" d="M -479.41177 -479.41177 L 479.41176 -479.41177 L 479.41176 479.41176 L -479.41177 479.41176 z" stroke-linecap="round" />
</g>
		<g transform="matrix(1.0429447837 0 0 1.3766871144 -0.5 0)" id="13_HIkbCeHcXG0mYMPqau"  >
<path style="stroke: rgb(235,247,4); stroke-width: 0; stroke-dasharray: none; stroke-linecap: butt; stroke-dashoffset: 0; stroke-linejoin: miter; stroke-miterlimit: 4; fill: rgb(255,255,255); fill-rule: nonzero; opacity: 1;"  transform=" translate(0, 0)" d="M -479.41177 -479.41177 L 479.41176 -479.41177 L 479.41176 479.41176 L -479.41177 479.41176 z" stroke-linecap="round" />
</g>
</g>
</g>
<g transform="matrix(1 0 0 1 607.4767963587 426.1683862299)" id="PSIvsAanQSG4fZkv2dZHs"  >
<path style="stroke: none; stroke-width: 1; stroke-dasharray: none; stroke-linecap: butt; stroke-dashoffset: 0; stroke-linejoin: miter; stroke-miterlimit: 4; fill: rgb(62,62,62); fill-rule: nonzero; opacity: 1;"  transform=" translate(-608.2241995693, -426.5450651306)" d="M 912.773804 666.386597 C 904.612305 662.614441 901.10553 656.723572 901.785034 648.343689 C 901.933105 646.517456 902.136353 644.692871 902.393127 642.878723 C 903.547852 634.720459 902.762939 633.747742 894.708069 633.733948 C 881.542603 633.711426 868.377136 633.726379 855.21167 633.72699 C 844.753174 633.727417 844.625916 633.738831 840.614136 643.667847 C 832.894592 662.773804 823.221497 680.772156 810.47699 697.023865 C 784.426575 730.243164 750.452087 751.253174 709.903381 762.057556 C 704.109863 763.601257 698.283936 765.039612 692.432373 766.344238 C 687.835938 767.369019 685.520325 769.99231 685.633118 774.744507 C 685.708252 777.908142 685.953674 781.099243 685.652588 784.232849 C 685.212585 788.81427 687.210205 790.036438 691.47644 789.783691 C 712.813721 788.519348 733.917358 785.943848 754.660278 780.490479 C 793.115662 770.380432 827.10144 752.156555 856.496826 725.372925 C 858.712341 723.354309 860.90033 721.275757 863.302673 719.497253 C 871.877075 713.149109 881.275879 713.904785 887.437683 721.302979 C 893.851379 729.003601 893.321838 738.785339 885.557373 745.8974 C 879.053345 751.854797 872.230225 757.496338 865.262146 762.909241 C 828.448486 791.506775 787.520813 811.810303 741.3703 819.17749 C 652.774292 833.320312 570.842102 817.053772 500.236786 759.351501 C 447.089478 715.916809 413.43399 660.182739 403.296326 591.501404 C 396.909546 548.231689 402.37738 506.14032 417.339172 465.177216 C 418.76712 461.2677 420.203705 457.351898 421.868439 453.540375 C 424.881195 446.642456 430.244873 442.82251 437.780334 442.539734 C 445.191498 442.261658 450.641937 445.578918 453.634491 452.446594 C 454.970001 455.511475 457.126373 456.492035 460.332794 456.453857 C 469.99588 456.338837 479.664154 456.292145 489.324554 456.496429 C 493.325195 456.581024 495.496338 454.937195 496.698547 451.269287 C 504.643433 427.03006 517.908752 405.77002 533.486572 385.812683 C 535.126648 383.711548 536.637878 381.509155 538.294006 379.421295 C 546.626587 368.916382 548.377563 357.698578 542.566101 345.333435 C 539.721497 339.281067 538.760803 332.580627 537.272461 326.096649 C 536.260803 321.689362 533.872314 319.995026 529.404846 320.552765 C 524.780518 321.130035 520.112427 321.365356 515.460449 321.709167 C 510.410583 322.082397 509.479004 323.219086 510.187408 328.39679 C 510.819366 333.015717 511.780273 337.609161 512.096252 342.247894 C 512.820068 352.875244 507.117828 360.103607 497.380981 361.363861 C 487.581421 362.632202 479.629852 356.757599 477.782806 346.392029 C 476.674835 340.174164 475.889893 333.848938 475.632904 327.544525 C 475.414185 322.179382 473.049561 320.111328 467.922028 319.223541 C 440.287201 314.438904 414.03476 305.421478 389.35144 292.111481 C 340.275085 265.647949 301.720612 228.463989 275.251373 179.138931 C 273.685638 176.221207 272.241089 173.140594 271.375061 169.962753 C 268.207336 158.339005 274.42395 148.818665 286.364288 146.949554 C 289.964874 146.385941 293.66806 146.258163 297.321503 146.286194 C 333.341888 146.562622 369.318848 145.69165 405.099548 141.225357 C 429.290253 138.20578 453.101318 133.291534 475.668854 123.699982 C 497.027008 114.622444 514.093445 100.106018 528.284668 81.862389 C 549.084656 55.122829 575.477478 36.400822 609.282654 30.933794 C 647.840332 24.698181 681.774414 34.014164 707.262451 65.673775 C 711.134705 70.483589 715.81073 72.806259 721.840881 73.017296 C 731.884766 73.368782 741.683167 75.241127 751.290283 78.13681 C 753.519531 78.808731 755.75531 79.512054 757.893188 80.423416 C 763.063843 82.627548 768.331604 85.201958 768.68573 91.631058 C 769.027222 97.831909 763.847534 100.379471 759.285583 102.773308 C 749.858459 107.72007 740.289612 112.396713 730.603577 117.272812 C 731.407776 119.656502 733.583313 119.936508 735.196411 120.809547 C 742.074585 124.532196 749.497192 127.219772 755.96698 131.722687 C 759.797852 134.38887 763.137817 137.505661 762.564575 142.666779 C 761.963745 148.076477 757.887329 150.367401 753.273743 152.004471 C 743.937561 155.317307 734.261719 157.064804 724.436462 157.704346 C 717.447571 158.159256 713.070129 161.291306 709.400452 167.328537 C 691.745789 196.372955 673.920959 225.306656 653.096924 252.285614 C 633.142212 278.138489 608.195984 297.090851 577.861572 309.086823 C 569.194031 312.514435 569.28833 312.64917 571.513672 321.534668 C 574.628784 333.973145 577.756348 346.409454 580.722168 358.883881 C 581.809998 363.459106 584.061707 367.100555 587.594788 370.171448 C 596.147156 377.60495 604.604553 385.148254 613.054565 392.698517 C 615.162781 394.582245 617.241333 396.535828 619.086243 398.670929 C 625.236572 405.788483 625.715149 413.613556 620.544495 420.028412 C 615.094727 426.789551 605.810303 428.634979 597.986328 424.299835 C 592.246338 421.119415 587.566895 416.570831 583.020813 411.908264 C 579.52948 408.327545 576.016907 404.788818 572.004639 401.760162 C 561.020142 393.468536 545.673706 399.924683 543.910339 413.683624 C 543.638 415.808746 543.348206 418.166382 543.971497 420.129089 C 546.158691 427.016144 543.914124 432.797729 540.409302 438.546326 C 537.898071 442.665161 535.864929 447.07254 533.51355 451.292725 C 531.416626 455.056122 532.6604 456.39917 536.698792 456.285309 C 541.194702 456.158478 545.697144 456.251556 550.196716 456.26123 C 581.527039 456.328674 612.857361 456.398987 644.187683 456.469238 C 651.560059 456.485748 651.957336 456.119904 651.958984 449.015137 C 651.96521 422.517578 651.968323 396.019989 651.956482 369.52243 C 651.953369 362.564209 651.435364 362.206116 644.856934 363.860382 C 640.49469 364.957306 636.134277 366.126038 631.709167 366.894928 C 621.80304 368.616119 614.043457 363.993378 611.404785 355.056976 C 609.053345 347.093353 613.379211 338.689667 621.914795 334.745911 C 628.940613 331.499756 636.483643 330.035309 644.009827 328.603882 C 648.935913 327.666962 651.976685 325.74823 652.436462 319.983093 C 653.079529 311.91925 659.115417 306.565613 667.279175 305.521271 C 674.262634 304.627869 681.858765 308.783112 683.872009 316.367615 C 685.763245 323.492462 690.034973 325.479614 696.468262 326.755432 C 744.23114 336.227417 782.032104 361.45285 811.406189 399.948822 C 823.300598 415.537018 833.696167 431.940857 840.507751 450.412872 C 842.211365 455.032776 845.122803 456.697906 850.006104 456.565277 C 860.497375 456.280304 871.001831 456.487244 881.500854 456.474365 C 888.254578 456.466064 888.738953 455.710846 885.661133 449.806671 C 864.801941 409.792542 836.093506 376.556244 799.528992 350.106537 C 785.044312 339.628693 769.646667 330.687622 753.695129 322.652008 C 750.586914 321.086273 747.516602 319.303986 744.779114 317.171844 C 738.054626 311.934448 736.352844 303.48822 740.223206 296.107086 C 743.956238 288.987762 752.339417 285.558197 760.30896 288.180573 C 774.68573 292.911194 787.481995 300.802551 800.200317 308.747253 C 834.457947 330.14679 864.807556 356.083435 888.316589 389.079376 C 930.693176 448.556793 952.190674 514.225647 944.274536 587.951782 C 942.104614 608.16095 939.315308 628.304077 936.748474 648.469666 C 935.92218 654.961121 933.654785 660.802124 927.984192 664.656372 C 923.402771 667.770325 918.361572 668.097961 912.773804 666.386597 z" stroke-linecap="round" />
</g>
<g transform="matrix(1 0 0 1 659.1171730735 652.8814173501)" id="9xT5EfRvQIKO2ZApK3xEi"  >
<path style="stroke: none; stroke-width: 1; stroke-dasharray: none; stroke-linecap: butt; stroke-dashoffset: 0; stroke-linejoin: miter; stroke-miterlimit: 4; fill: rgb(62,61,61); fill-rule: nonzero; opacity: 1;"  transform=" translate(-659.8645762841, -653.2580962508)" d="M 1022.748535 491.448303 C 1022.213745 470.978882 1018.15686 451.650696 1010.797668 433.096436 C 997.964172 400.73996 975.602356 378.574158 941.280945 369.693695 C 933.822449 367.763855 926.183777 367.198029 918.479065 367.347015 C 914.486633 367.424255 910.464294 367.515656 906.499146 367.139984 C 896.691162 366.210632 890.610779 359.917786 890.274109 350.717377 C 889.957825 342.075439 895.856323 335.10498 905.530273 334.028961 C 930.470032 331.254974 954.512756 334.96344 976.875122 346.511017 C 1017.978455 367.736023 1040.212036 403.122375 1050.94519 446.90802 C 1055.308228 464.706604 1055.815674 482.823853 1055.815796 500.999969 C 1055.81665 613.154785 1055.831299 725.30957 1055.795288 837.464417 C 1055.790894 851.195435 1055.663696 851.151123 1069.512207 851.205322 C 1092.66687 851.295898 1115.821289 851.426941 1138.975586 851.586853 C 1148.879028 851.655212 1154.80542 856.777649 1156.77417 866.39978 C 1158.979492 877.177673 1156.065674 887.322021 1152.755615 897.244995 C 1139.303711 937.572021 1110.546265 960.619507 1069.76355 969.788025 C 1055.372803 973.023193 1040.694824 973.284424 1026.081055 973.290222 C 780.439941 973.38855 534.798828 973.373901 289.157684 973.334717 C 269.778229 973.331604 250.3741 972.562561 232.07605 965.318054 C 190.341293 948.79425 166.047928 918.772522 162.293747 873.357544 C 161.15303 859.557922 169.155472 851.299072 183.71402 851.223267 C 207.044296 851.101746 230.375671 851.194275 253.706573 851.184998 C 262.439697 851.181519 263.004761 850.618958 262.998932 841.736511 C 262.9245 727.915039 262.960327 614.093384 262.69989 500.272339 C 262.603851 458.299469 278.342285 424.164124 311.425629 398.25473 C 331.687225 382.386749 355.010162 374.83728 380.577454 374.374603 C 401.236023 374.000702 421.904755 374.119171 442.568817 374.151154 C 453.310944 374.167786 460.822723 381.620605 460.786499 391.884735 C 460.751373 401.839569 453.95401 408.077606 442.688782 408.153381 C 423.027069 408.285645 403.372772 408.788605 383.701141 408.454712 C 340.711731 407.725098 302.606781 441.43399 297.370422 484.159119 C 296.719574 489.469788 296.58725 494.720703 296.593262 500.0177 C 296.720459 612.172485 296.855957 724.327332 296.973877 836.482117 C 296.975983 838.47345 296.883972 840.47644 296.66153 842.454346 C 295.982483 848.492615 297.816437 850.888855 303.74765 851.397766 C 305.403198 851.539795 307.078217 851.471497 308.744293 851.470825 C 543.053223 851.378418 777.362122 851.283447 1011.671021 851.188477 C 1012.504272 851.188171 1013.337463 851.189209 1014.170715 851.188049 C 1021.85437 851.177185 1021.85437 851.177063 1022.679688 843.304565 C 1023.659058 842.191101 1023.604858 841.226135 1023.603027 840.195923 C 1023.39856 725.896606 1023.561829 611.597229 1023.488647 497.297821 C 1023.487488 495.488007 1023.827942 493.62265 1022.748535 491.448303 z" stroke-linecap="round" />
</g>
<g transform="matrix(1 0 0 1 242.4709070807 1133.2107863554)" id="Ws2w8WPRZXYwDsn114Wgo"  >
<path style="stroke: none; stroke-width: 1; stroke-dasharray: none; stroke-linecap: butt; stroke-dashoffset: 0; stroke-linejoin: miter; stroke-miterlimit: 4; fill: rgb(75,61,63); fill-rule: nonzero; opacity: 1;"  transform=" translate(-243.2183102913, -1133.5874652561)" d="M 182.137329 1206.231689 C 177.113922 1219.507446 172.207458 1232.41626 167.329178 1245.335938 C 166.020416 1248.802002 164.127472 1251.548828 160.05603 1251.985718 C 154.676041 1252.56311 150.338715 1248.349609 150.003143 1242.004761 C 149.725632 1236.757568 151.007126 1231.720581 152.827698 1226.883545 C 162.154312 1202.104126 172.631836 1177.814575 184.62326 1154.206421 C 186.742462 1150.034302 187.705612 1146.887329 183.566483 1143.322388 C 180.555893 1140.72937 180.181671 1136.950806 181.981018 1133.224609 C 183.830765 1129.394165 187.011276 1126.904541 191.13475 1127.681885 C 196.9254 1128.773193 199.051804 1125.721558 201.240143 1121.29834 C 209.801575 1103.993042 219.032913 1087.014893 226.534851 1069.197144 C 227.266922 1067.458374 228.824539 1065.830566 227.849609 1063.449219 C 224.228073 1064.419067 221.387177 1066.807861 218.165527 1068.414673 C 214.609283 1070.188721 211.227646 1070.823486 208.116562 1067.583862 C 205.001633 1064.340332 205.076218 1060.669067 206.974686 1056.979492 C 208.985458 1053.071533 212.014282 1049.972046 215.557007 1047.376465 C 221.474625 1043.040771 227.532501 1038.915649 234.066254 1035.557373 C 239.141357 1032.948853 242.297485 1028.994507 243.437683 1023.364929 C 244.278473 1019.213806 245.989944 1015.739746 250.891922 1015.219666 C 255.709869 1014.708435 258.933655 1016.528259 260.342957 1021.338135 C 261.065582 1023.804443 262.864166 1023.327576 264.793335 1022.826599 C 272.856049 1020.733032 281.079163 1019.37323 289.21875 1017.646423 C 313.515839 1012.491882 338.17392 1033.284546 336.378845 1060.46228 C 335.088959 1079.990723 326.77771 1096.948364 313.71814 1111.045776 C 289.259003 1137.448853 259.604675 1153.905273 222.722961 1154.939697 C 221.074829 1154.985962 219.367584 1154.96936 217.774857 1154.603516 C 209.150345 1152.622192 205.032578 1154.435913 201.414108 1162.493408 C 194.939423 1176.910767 188.638428 1191.406128 182.137329 1206.231689 z" stroke-linecap="round" />
</g>
<g transform="matrix(1 0 0 1 633.6629361016 1135.9683389857)" id="zhirax2C0105dt-hlCMXX"  >
<path style="stroke: none; stroke-width: 1; stroke-dasharray: none; stroke-linecap: butt; stroke-dashoffset: 0; stroke-linejoin: miter; stroke-miterlimit: 4; fill: rgb(75,61,63); fill-rule: nonzero; opacity: 1;"  transform=" translate(-634.4103393122, -1136.3450178864)" d="M 626.509033 1237.582275 C 622.33551 1233.843628 619.310547 1229.77063 617.407104 1224.815063 C 615.588257 1220.079834 616.438049 1214.94397 615.106384 1210.082397 C 612.53479 1210.487061 611.959167 1212.669312 610.806213 1214.160645 C 605.522339 1220.995239 600.965881 1228.399902 593.906738 1233.75769 C 582.284607 1242.578613 569.862305 1239.444824 564.327759 1225.956421 C 559.061035 1213.12085 561.695251 1200.401733 565.377197 1187.785645 C 570.4552 1170.386353 580.426331 1155.971802 593.188721 1143.420288 C 600.872986 1135.863037 610.060242 1131.047607 621.029602 1130.169189 C 624.400452 1129.89917 627.895874 1129.813965 630.747253 1131.64978 C 635.266846 1134.55957 637.134338 1132.422852 639.061035 1128.502686 C 647.508911 1111.314575 655.887939 1094.077881 665.452637 1077.475342 C 672.351196 1065.500732 679.635376 1053.746582 686.858093 1041.961792 C 689.03595 1038.408325 691.585815 1035.077515 695.416565 1033.057739 C 698.775024 1031.286743 702.064575 1030.866089 705.098694 1033.735107 C 708.125488 1036.597168 707.92688 1039.793213 706.266968 1043.307373 C 700.985535 1054.488525 693.836914 1064.580688 687.75415 1075.293213 C 671.386169 1104.119263 654.911621 1132.913086 642.426086 1163.699585 C 636.676941 1177.875732 631.364441 1192.326416 631.580383 1208.047607 C 631.682556 1215.48291 633.074768 1222.195312 639.799744 1226.856079 C 643.226562 1229.231079 643.276733 1232.733643 641.002502 1236.133667 C 638.61731 1239.699463 635.64856 1242.251709 630.997437 1240.432617 C 629.483521 1239.840698 628.182373 1238.704834 626.509033 1237.582275 z" stroke-linecap="round" />
</g>
<g transform="matrix(1 0 0 1 541.0468174799 1135.9247516915)" id="CBJTO_4B22IOQKuuc4RHd"  >
<path style="stroke: none; stroke-width: 1; stroke-dasharray: none; stroke-linecap: butt; stroke-dashoffset: 0; stroke-linejoin: miter; stroke-miterlimit: 4; fill: rgb(74,60,62); fill-rule: nonzero; opacity: 1;"  transform=" translate(-541.7942206905, -1136.3014305922)" d="M 598.477661 1069.546631 C 583.131042 1096.292114 567.681519 1122.58606 555.686096 1150.666748 C 549.094971 1166.096191 541.747681 1181.324585 539.598389 1198.284424 C 538.945068 1203.439819 538.961426 1208.57373 539.631165 1213.722778 C 540.282166 1218.728638 542.312073 1222.822632 546.444946 1226 C 550.746155 1229.306763 551.059631 1233.016357 547.94696 1237.288208 C 545.005432 1241.325195 541.021729 1242.138794 536.585266 1239.480225 C 527.781372 1234.204956 524.395142 1225.780518 523.15979 1216.133545 C 522.874634 1213.90686 522.569153 1211.682861 522.14093 1208.465454 C 518.055664 1214.069824 514.722412 1218.797241 511.222412 1223.397949 C 508.088928 1227.516602 504.54184 1231.268677 500.392334 1234.408081 C 489.771851 1242.443604 477.401398 1239.22168 472.082794 1226.951538 C 468.812469 1219.406982 467.953278 1211.325317 469.287903 1203.412476 C 474.031616 1175.287842 487.064819 1152.00647 511.144226 1135.855469 C 520.203918 1129.778809 530.172729 1128.067139 540.562622 1132.755127 C 543.073181 1133.888062 544.319397 1133.285522 545.522034 1130.697998 C 559.647217 1100.308105 575.86261 1071.056519 593.781189 1042.742798 C 596.026184 1039.195312 598.507141 1035.844238 602.08728 1033.54895 C 605.378235 1031.438965 608.858948 1030.539185 612.249023 1033.350464 C 615.677368 1036.193481 615.346924 1039.722534 613.712402 1043.333496 C 609.574829 1052.473999 603.581787 1060.541748 598.477661 1069.546631 z" stroke-linecap="round" />
</g>
<g transform="matrix(1 0 0 1 131.1392998634 1128.6662761667)" id="cbGj_72cMEgva4T3mDsDN"  >
<path style="stroke: none; stroke-width: 1; stroke-dasharray: none; stroke-linecap: butt; stroke-dashoffset: 0; stroke-linejoin: miter; stroke-miterlimit: 4; fill: rgb(75,60,62); fill-rule: nonzero; opacity: 1;"  transform=" translate(-131.8867030739, -1129.0429550674)" d="M 76.444427 1196.345703 C 91.09037 1157.630859 111.140373 1122.143066 132.687561 1087.432861 C 145.081772 1067.467163 158.484604 1048.185913 172.403839 1029.259644 C 175.572311 1024.951416 179.050858 1020.921997 183.255127 1017.576294 C 185.885513 1015.483032 188.71286 1014.208618 191.96051 1016.186279 C 195.274643 1018.204407 196.733719 1021.214294 196.192337 1025.076782 C 195.474426 1030.198608 192.710815 1034.393066 189.8452 1038.499023 C 177.929489 1055.572266 165.769073 1072.47876 154.084518 1089.708252 C 137.705093 1113.860352 123.581894 1139.277222 110.785759 1165.549683 C 100.078522 1187.533325 91.844749 1210.245361 85.472122 1233.74292 C 85.210808 1234.706421 84.911583 1235.661499 84.585876 1236.605225 C 83.196419 1240.630981 80.676071 1243.080444 76.105164 1242.873169 C 71.240112 1242.652466 68.938522 1239.53064 68.04055 1235.354492 C 66.787491 1229.5271 67.754417 1223.728271 69.456139 1218.104248 C 71.624786 1210.937256 74.00119 1203.833252 76.444427 1196.345703 z" stroke-linecap="round" />
</g>
<g transform="matrix(1 0 0 1 423.8584817195 1183.7267622672)" id="f-M4A8_FvioSp3YCSEkHO"  >
<path style="stroke: none; stroke-width: 1; stroke-dasharray: none; stroke-linecap: butt; stroke-dashoffset: 0; stroke-linejoin: miter; stroke-miterlimit: 4; fill: rgb(75,61,62); fill-rule: nonzero; opacity: 1;"  transform=" translate(-424.6058849301, -1184.1034411679)" d="M 419.369324 1227.378662 C 416.342468 1230.526489 413.35788 1233.177856 409.837952 1235.155884 C 399.127136 1241.175537 387.549744 1236.663696 383.789856 1224.953735 C 381.377838 1217.441528 381.55014 1209.800171 383.384827 1202.241089 C 390.166199 1174.301514 404.113495 1150.83606 427.156525 1133.213013 C 433.761841 1128.161255 441.239594 1124.998291 449.624634 1124.329834 C 461.671326 1123.369629 468.721527 1131.123535 466.32489 1142.963379 C 465.652985 1146.282837 465.167633 1149.208618 466.618805 1152.555054 C 468.202148 1156.206421 466.351257 1159.783447 464.509399 1162.974365 C 457.044434 1175.906982 451.313965 1189.50415 448.146759 1204.142578 C 445.058105 1218.417969 445.95874 1220.784424 458.244904 1228.888428 C 461.698761 1231.166626 463.41275 1234.062012 462.152618 1238.18811 C 460.904205 1242.276001 457.823914 1243.867188 453.768799 1243.953613 C 443.454834 1244.173218 433.420868 1234.26001 432.387756 1222.623535 C 432.095734 1219.334351 432.34314 1215.997314 431.285217 1212.17749 C 427.394135 1217.159546 423.503052 1222.141602 419.369324 1227.378662 z" stroke-linecap="round" />
</g>
<g transform="matrix(1 0 0 1 911.5568325096 1181.6224074041)" id="bQfS19ZRuBGQc4LBLyDUY"  >
<path style="stroke: none; stroke-width: 1; stroke-dasharray: none; stroke-linecap: butt; stroke-dashoffset: 0; stroke-linejoin: miter; stroke-miterlimit: 4; fill: rgb(76,62,64); fill-rule: nonzero; opacity: 1;"  transform=" translate(-912.3042357202, -1181.9990863048)" d="M 944.974365 1167.0271 C 938.331848 1169.781372 932.124573 1172.7323 925.207581 1173.402222 C 919.224182 1173.981812 916.645996 1172.544312 915.928894 1168.382812 C 915.129456 1163.743896 917.433594 1160.718262 922.970764 1159.200928 C 927.139893 1158.058716 931.390381 1157.164917 935.477112 1155.783325 C 939.820557 1154.314697 943.458862 1151.626343 946.102722 1147.81665 C 947.827026 1145.331909 948.215942 1142.572266 946.871948 1139.759033 C 945.463257 1136.810547 942.816101 1135.71582 939.834412 1136.011108 C 925.596497 1137.421265 913.783142 1143.654663 906.307739 1155.891235 C 901.721497 1163.39856 903.978455 1171.858765 907.713013 1179.362549 C 910.522583 1185.007935 914.315002 1190.155762 917.486694 1195.631104 C 925.509888 1209.481812 923.591309 1225.275635 912.833496 1234.881836 C 901.395691 1245.095215 883.150513 1245.858765 870.670532 1236.646118 C 855.390015 1225.366089 854.767273 1195.634033 869.602661 1183.706177 C 872.246216 1181.580566 875.498108 1180.643677 878.381531 1182.639404 C 881.27948 1184.645264 879.488892 1187.461792 878.348267 1189.835449 C 875.541504 1195.676636 874.27594 1201.824951 874.736938 1208.266235 C 875.301819 1216.158447 879.571655 1221.72522 886.560608 1224.922241 C 896.657532 1229.541138 906.760742 1222.166748 905.80188 1211.107544 C 905.278687 1205.07373 902.321411 1200.05542 898.90918 1195.259521 C 894.348083 1188.848877 890.445374 1182.101196 887.964783 1174.581421 C 884.11261 1162.903687 886.451355 1152.295044 894.525879 1143.412354 C 909.312622 1127.145752 927.906616 1119.521973 949.963318 1121.128784 C 962.23114 1122.022583 967.723267 1129.667725 965.155334 1141.714966 C 962.67395 1153.356079 954.926208 1160.848267 944.974365 1167.0271 z" stroke-linecap="round" />
</g>
<g transform="matrix(1 0 0 1 1001.7632067945 1181.5545374312)" id="wPijPTl6xIRzU8oGbVVTL"  >
<path style="stroke: none; stroke-width: 1; stroke-dasharray: none; stroke-linecap: butt; stroke-dashoffset: 0; stroke-linejoin: miter; stroke-miterlimit: 4; fill: rgb(75,62,64); fill-rule: nonzero; opacity: 1;"  transform=" translate(-1002.5106100051, -1181.9312163319)" d="M 1027.349609 1170.299805 C 1022.442505 1172.135986 1017.829712 1173.5 1012.910156 1173.495483 C 1009.3573 1173.49231 1006.568726 1172.065308 1005.698608 1168.555054 C 1004.835693 1165.074097 1006.627869 1162.417969 1009.649963 1160.696777 C 1013.789856 1158.339233 1018.632324 1158.369873 1023.050964 1156.905884 C 1027.55957 1155.412109 1031.715454 1153.436279 1034.855225 1149.768433 C 1037.4021 1146.793213 1038.689087 1143.421875 1036.912842 1139.631226 C 1035.205811 1135.988403 1031.732422 1135.547607 1028.347534 1135.966309 C 1013.862793 1137.75708 1002.234863 1144.720093 995.553223 1157.643677 C 991.90918 1164.691772 994.696899 1172.745361 998.127319 1179.662476 C 1001.298584 1186.056763 1005.62085 1191.871216 1008.97168 1198.187378 C 1015.99585 1211.427734 1014.150208 1225.317505 1004.186401 1233.816772 C 994.556091 1242.031616 983.350037 1244.801514 971.029053 1241.643433 C 962.881348 1239.555054 956.487366 1234.676514 953.146667 1226.87439 C 947.201294 1212.989136 946.891357 1199.359863 956.770203 1186.819092 C 958.523193 1184.59375 960.554932 1182.538696 963.610474 1182.14209 C 965.607849 1181.882935 967.699097 1181.621338 969.167908 1183.423584 C 970.57373 1185.148315 969.671936 1186.949219 968.897522 1188.589966 C 965.992249 1194.744751 964.612976 1201.194824 965.095459 1207.987671 C 965.698242 1216.473145 970.982422 1223.209595 978.556641 1225.387085 C 983.60498 1226.838379 988.167114 1225.968994 991.99646 1222.358398 C 995.997986 1218.585327 997.062988 1213.890137 995.659668 1208.62146 C 994.179871 1203.065308 991.419373 1198.150269 988.036804 1193.549805 C 984.268494 1188.425049 981.106262 1182.971802 978.945312 1176.957642 C 973.995972 1163.182739 976.515808 1150.827271 986.880127 1140.644165 C 1001.275513 1126.50061 1018.76123 1119.811523 1039.043945 1121.105469 C 1052.89978 1121.98938 1058.936646 1130.806519 1054.760742 1144.14209 C 1050.517334 1157.693237 1040.452881 1165.361938 1027.349609 1170.299805 z" stroke-linecap="round" />
</g>
<g transform="matrix(1 0 0 1 1189.4829906193 1181.5513006386)" id="FKGpAVywNUkYg7fT6ZS60"  >
<path style="stroke: none; stroke-width: 1; stroke-dasharray: none; stroke-linecap: butt; stroke-dashoffset: 0; stroke-linejoin: miter; stroke-miterlimit: 4; fill: rgb(76,62,64); fill-rule: nonzero; opacity: 1;"  transform=" translate(-1190.2303938299, -1181.9279795393)" d="M 1140.761475 1191.791138 C 1143.376343 1187.268311 1145.676392 1182.936279 1151.13501 1181.958862 C 1153.204102 1181.588379 1155.161743 1181.626221 1156.703979 1183.252563 C 1158.499512 1185.145996 1157.356201 1187.012573 1156.394531 1188.746094 C 1152.595825 1195.593506 1151.725708 1202.914429 1152.799805 1210.539917 C 1153.959351 1218.771851 1160.486084 1225.059082 1168.754761 1226.024536 C 1177.089111 1226.997559 1183.982422 1220.413208 1183.661255 1211.831299 C 1183.46521 1206.596436 1180.910522 1202.286987 1178.279663 1198.028687 C 1174.430908 1191.799438 1170.113037 1185.863159 1167.238281 1179.049927 C 1161.010132 1164.288452 1163.816895 1150.214111 1175.565796 1139.404907 C 1190.015259 1126.111084 1207.071899 1119.829834 1226.754639 1121.056519 C 1240.071777 1121.886475 1246.083008 1130.411499 1242.535522 1143.317505 C 1241.095703 1148.555664 1238.541138 1153.225098 1234.924072 1157.230591 C 1226.118408 1166.981812 1214.641479 1171.47229 1201.990356 1173.376343 C 1197.84314 1174.00061 1194.195312 1172.874023 1193.031006 1168.222168 C 1192.127808 1164.613159 1194.984741 1160.793091 1199.590576 1159.515503 C 1203.911377 1158.317139 1208.389282 1157.760742 1212.629517 1156.154663 C 1217.129028 1154.450195 1220.923706 1151.873779 1223.674927 1147.936279 C 1225.532593 1145.277466 1225.738037 1142.372559 1224.177734 1139.433838 C 1222.631836 1136.522339 1220.041748 1135.784668 1217.005859 1135.980713 C 1206.817139 1136.639038 1197.592407 1140.001343 1190.633423 1147.522339 C 1180.576538 1158.391724 1179.37085 1166.470215 1184.948486 1178.412354 C 1188.136841 1185.238525 1192.770874 1191.196167 1196.295654 1197.813354 C 1200.461792 1205.634033 1202.043213 1213.732788 1199.139771 1222.379517 C 1194.981567 1234.763428 1178.867554 1244.437866 1165.126953 1242.760498 C 1149.21167 1240.817749 1138.42749 1230.396484 1137.193726 1215.568604 C 1136.52417 1207.520874 1136.880493 1199.564209 1140.761475 1191.791138 z" stroke-linecap="round" />
</g>
<g transform="matrix(1 0 0 1 1087.8947232285 1182.3795582899)" id="WxZtrZf21rOchv8wpSit9"  >
<path style="stroke: none; stroke-width: 1; stroke-dasharray: none; stroke-linecap: butt; stroke-dashoffset: 0; stroke-linejoin: miter; stroke-miterlimit: 4; fill: rgb(75,61,63); fill-rule: nonzero; opacity: 1;"  transform=" translate(-1088.6421264391, -1182.7562371906)" d="M 1117.394043 1134.729858 C 1120.692139 1140.059937 1120.091797 1145.33606 1118.245728 1150.469482 C 1111.840942 1168.279907 1099.636597 1181.370239 1084.032104 1191.51062 C 1077.7323 1195.60437 1070.863159 1198.614258 1063.767822 1201.139038 C 1058.195923 1203.121948 1057.242188 1205.945435 1060.314575 1211.095459 C 1063.983521 1217.245239 1069.710083 1219.369385 1076.552246 1218.445923 C 1089.48584 1216.700439 1099.760742 1209.71106 1109.24353 1201.328247 C 1114.870972 1196.353638 1119.792969 1190.68811 1124.782471 1185.090942 C 1126.105225 1183.606934 1127.621216 1182.273071 1129.166748 1181.015747 C 1130.999756 1179.524414 1133.050171 1179.126221 1135.168213 1180.504517 C 1137.088135 1181.754028 1137.50708 1183.607178 1137.224609 1185.749634 C 1137.003296 1187.427734 1136.588623 1189.042725 1135.570068 1190.408813 C 1119.635132 1211.783691 1100.340942 1228.596924 1073.736084 1235.150146 C 1054.415405 1239.908936 1038.752563 1226.850586 1040.055786 1207.016479 C 1040.984863 1192.878052 1046.097412 1179.971802 1054.179688 1168.523926 C 1062.960571 1156.086548 1073.508057 1145.187744 1086.306519 1136.683105 C 1091.366089 1133.321045 1096.899658 1131.121216 1102.823853 1129.831665 C 1108.512939 1128.593262 1113.38501 1129.806152 1117.394043 1134.729858 z" stroke-linecap="round" />
</g>
<g transform="matrix(1 0 0 1 711.8867504104 1186.3806339381)" id="i5651lYOEjnTL68iTH_e1"  >
<path style="stroke: none; stroke-width: 1; stroke-dasharray: none; stroke-linecap: butt; stroke-dashoffset: 0; stroke-linejoin: miter; stroke-miterlimit: 4; fill: rgb(75,62,64); fill-rule: nonzero; opacity: 1;"  transform=" translate(-712.634153621, -1186.7573128388)" d="M 701.833374 1136.729126 C 703.323547 1135.917114 704.456726 1135.180176 705.691589 1134.710938 C 708.94812 1133.474121 711.989624 1133.804565 714.295166 1136.635864 C 716.493164 1139.335205 715.443115 1142.090332 713.722412 1144.462524 C 708.930298 1151.069214 703.952148 1157.540527 699.094788 1164.100464 C 697.95282 1165.6427 696.294861 1167.092407 697.306213 1169.44458 C 699.604675 1169.368408 700.718506 1167.531128 702.197449 1166.283569 C 716.581543 1154.149292 730.505005 1141.434692 746.672363 1131.570801 C 750.088074 1129.486816 753.177673 1128.193359 756.551819 1131.505127 C 759.940796 1134.831543 760.180786 1138.091309 756.767212 1141.430908 C 751.527954 1146.556763 746.10907 1151.498535 740.790588 1156.543823 C 738.969482 1158.271362 737.250061 1160.129883 736.364624 1162.523315 C 735.524353 1164.794556 735.247437 1167.152344 737.217407 1169.04187 C 739.045654 1170.79541 741.122437 1170.291504 743.271057 1169.520142 C 750.537415 1166.911133 757.176147 1163.143066 763.55896 1158.859619 C 764.932983 1157.9375 766.402527 1157.111206 767.923523 1156.46582 C 770.00531 1155.582642 771.819275 1156.259399 773.345642 1157.854858 C 774.929077 1159.509888 775.198181 1161.351074 774.081299 1163.333984 C 773.42981 1164.490479 772.834106 1165.765015 771.901978 1166.663574 C 761.321594 1176.861816 749.716003 1185.391602 734.843994 1188.123169 C 724.00946 1190.113159 718.170715 1185.77124 717.076111 1174.828003 C 716.716064 1171.227539 715.78241 1171.237183 713.371094 1173.259277 C 703.997192 1181.119629 695.800964 1190.06897 688.689636 1200.000977 C 681.111328 1210.585449 674.380249 1221.689453 668.548706 1233.3396 C 667.362244 1235.709717 666.044983 1238.084351 664.387573 1240.132812 C 661.660339 1243.503662 658.259338 1245.334351 653.883118 1242.947388 C 649.705261 1240.668579 650.166443 1237.069702 651.262146 1233.358521 C 657.934937 1210.756714 666.529602 1188.917236 677.891052 1168.255371 C 683.429321 1158.183716 689.49585 1148.383057 697.766968 1140.20459 C 698.94635 1139.038452 700.267273 1138.015381 701.833374 1136.729126 z" stroke-linecap="round" />
</g>
<g transform="matrix(1 0 0 1 810.9470217324 1182.3778283559)" id="zhJB6KBVZQ1S6YlrypzCV"  >
<path style="stroke: none; stroke-width: 1; stroke-dasharray: none; stroke-linecap: butt; stroke-dashoffset: 0; stroke-linejoin: miter; stroke-miterlimit: 4; fill: rgb(75,61,63); fill-rule: nonzero; opacity: 1;"  transform=" translate(-811.694424943, -1182.7545072566)" d="M 815.164551 1185.143555 C 806.779968 1192.213989 797.632324 1197.183594 787.634033 1200.705688 C 780.477356 1203.227051 779.319946 1209.279541 784.973206 1214.400269 C 788.48645 1217.582642 792.746765 1218.659546 797.457214 1218.380127 C 810.507629 1217.605957 820.809326 1211.133667 829.953674 1202.515625 C 836.735779 1196.123779 843.16333 1189.356079 849.768066 1182.775269 C 852.076355 1180.475464 854.532471 1178.145874 857.981628 1180.62561 C 861.632202 1183.250244 860.301086 1186.56543 858.528503 1189.500122 C 849.426086 1204.57019 835.929443 1215.098999 821.592896 1224.675537 C 813.045349 1230.385132 803.622437 1233.917114 793.43219 1235.600708 C 776.378906 1238.418091 762.854553 1227.302979 763.092773 1210.083252 C 763.336304 1192.479004 769.323059 1176.911255 780.617615 1163.385742 C 787.99884 1154.546387 795.80188 1146.139893 805.110168 1139.263306 C 811.189453 1134.772095 817.648499 1130.980591 825.232361 1129.75769 C 837.099976 1127.844116 844.528809 1135.7677 841.425476 1147.359253 C 837.263611 1162.904175 827.657532 1174.859375 815.164551 1185.143555 z" stroke-linecap="round" />
</g>
<g transform="matrix(1 0 0 1 1022.8946498445 666.7231727634)" id="9o4-iu1eW-UbPVZgxGK87"  >
<path style="stroke: none; stroke-width: 1; stroke-dasharray: none; stroke-linecap: butt; stroke-dashoffset: 0; stroke-linejoin: miter; stroke-miterlimit: 4; fill: rgb(52,52,52); fill-rule: nonzero; opacity: 1;"  transform=" translate(-1023.6420530551, -667.0998516641)" d="M 1022.345215 491.452545 C 1024.088257 491.012848 1025.053223 491.623138 1025.004272 493.36438 C 1024.966797 494.694916 1025.004395 496.027527 1025.004395 497.359192 C 1025.004883 610.386658 1025.013184 723.414185 1024.941406 836.441589 C 1024.940063 838.558655 1026.20813 841.149048 1023.229126 842.884521 C 1022.596558 837.134277 1022.186157 831.325317 1022.182739 825.516113 C 1022.117004 714.972595 1022.09906 604.429016 1022.075684 493.885498 C 1022.075562 493.220886 1022.13855 492.556274 1022.345215 491.452545 z" stroke-linecap="round" />
</g>
<g transform="matrix(1 0 0 1 503.5120073268 174.657468699)" id="yja-mseVzptdM9-9OFAzJ"  >
<path style="stroke: none; stroke-width: 1; stroke-dasharray: none; stroke-linecap: butt; stroke-dashoffset: 0; stroke-linejoin: miter; stroke-miterlimit: 4; fill: rgb(249,250,250); fill-rule: nonzero; opacity: 1;"  transform=" translate(-504.2594105374, -175.0341475997)" d="M 392.915527 206.091003 C 414.910492 226.250961 440.378571 238.947235 469.787964 240.352493 C 509.498566 242.249939 541.23407 226.859619 561.388977 191.28833 C 565.647095 183.773132 569.173096 175.812012 572.616638 167.874237 C 576.941528 157.904755 573.680115 147.540558 565.427002 143.657822 C 556.348816 139.386902 546.259949 143.178696 541.118347 153.078934 C 539.36554 156.453873 538.356689 160.208542 536.90332 163.746674 C 526.440308 189.217621 508.342102 204.98587 480.141602 206.443192 C 462.701721 207.344452 446.631042 201.684891 431.886505 192.494049 C 425.674377 188.621765 419.503815 184.597656 414.696198 178.919083 C 413.760406 177.813736 411.952148 176.770752 412.483337 175.262863 C 413.018524 173.743591 415.056305 174.069077 416.495911 173.845627 C 433.793335 171.160599 450.971375 167.954132 467.748352 162.823441 C 500.460083 152.819641 528.440308 135.78775 549.619202 108.400673 C 559.880493 95.131424 571.600037 83.299057 586.179749 74.741257 C 607.162537 62.425102 629.55481 57.92981 652.796753 66.631226 C 686.536133 79.262756 699.924316 113.576797 683.307068 145.503601 C 671.54364 168.104828 655.926208 188.449966 642.249146 209.94397 C 634.741821 221.742035 626.540833 233.069016 616.776733 243.226791 C 586.550659 274.671265 549.264587 288.337067 506.174835 287.947144 C 447.633087 287.417358 398.08609 265.067596 355.341248 226.098999 C 342.635651 214.515854 330.519073 202.378281 320.970062 187.953949 C 319.658417 185.972565 317.086945 183.955948 318.502991 181.366074 C 319.789551 179.013168 322.725708 180.002182 324.977417 179.951111 C 337.63562 179.663956 350.304352 179.658676 362.9505 179.114883 C 367.86734 178.903442 371.151794 180.556427 373.917267 184.448441 C 379.429565 192.206177 385.764252 199.281418 392.915527 206.091003 z" stroke-linecap="round" />
</g>
<g transform="matrix(1 0 0 1 550.3372884479 710.072871666)" id="lJj1XdhFIc_DqPFTSenx0"  >
<path style="stroke: none; stroke-width: 1; stroke-dasharray: none; stroke-linecap: butt; stroke-dashoffset: 0; stroke-linejoin: miter; stroke-miterlimit: 4; fill: rgb(248,249,249); fill-rule: nonzero; opacity: 1;"  transform=" translate(-551.0846916585, -710.4495505667)" d="M 651.906433 772.301453 C 651.864136 775.588806 651.981995 778.431274 651.765747 781.248108 C 651.333618 786.879028 650.044067 787.965942 644.409546 786.905029 C 632.786926 784.716553 621.307434 781.89978 609.989014 778.445557 C 572.645203 767.048645 538.912415 749.083069 510.194733 722.454102 C 485.09964 699.184387 465.652985 671.718018 451.83371 640.365967 C 448.912262 633.738098 449.141052 633.632629 456.392273 633.632446 C 518.192078 633.631165 579.991943 633.630249 641.791748 633.633301 C 651.097656 633.633728 652.094299 634.636536 652.089111 643.929993 C 652.074768 669.748779 652.06073 695.567505 652.038879 721.386292 C 652.032349 729.075012 650.879578 729.901306 643.521851 727.607361 C 615.443115 718.853149 591.751404 703.499329 572.975098 680.74231 C 570.537048 677.787415 568.216309 674.720032 565.600342 671.930725 C 559.447754 665.370361 550.057922 664.250549 543.396301 669.104736 C 535.630798 674.763367 533.145264 683.935364 537.682251 692.031738 C 539.943115 696.066162 542.883728 699.775024 545.861572 703.343506 C 572.071289 734.752258 605.355652 754.671204 645.07605 763.955688 C 649.531494 764.997192 652.616699 766.622253 651.906433 772.301453 z" stroke-linecap="round" />
</g>
<g transform="matrix(1 0 0 1 752.789277772 544.3864516422)" id="rrgf-PyxQEp89wxd1GYfI"  >
<path style="stroke: none; stroke-width: 1; stroke-dasharray: none; stroke-linecap: butt; stroke-dashoffset: 0; stroke-linejoin: miter; stroke-miterlimit: 4; fill: rgb(249,250,250); fill-rule: nonzero; opacity: 1;"  transform=" translate(-753.5366809826, -544.7631305429)" d="M 821.02124 570.766052 C 819.969116 578.81958 818.924133 586.410278 817.966125 594.011963 C 817.493591 597.761963 815.720886 599.432007 811.710388 599.423096 C 771.389282 599.333862 731.067871 599.358337 690.746704 599.435059 C 686.596436 599.442932 685.18811 597.56781 685.186157 593.644897 C 685.170166 561.487915 685.046997 529.330933 685.012634 497.17395 C 685.00647 491.426819 686.48645 490.112976 692.699341 490.107574 C 722.023987 490.082123 751.348694 490.095001 780.67334 490.094391 C 789.504028 490.094208 798.334778 490.085388 807.165466 490.097778 C 813.98761 490.107361 814.874268 490.905029 816.474854 497.794525 C 822.031799 521.713562 823.220825 545.903442 821.02124 570.766052 z" stroke-linecap="round" />
</g>
<g transform="matrix(1 0 0 1 583.9372756135 544.3881273382)" id="er01_nTdMzJLEM485kwK9"  >
<path style="stroke: none; stroke-width: 1; stroke-dasharray: none; stroke-linecap: butt; stroke-dashoffset: 0; stroke-linejoin: miter; stroke-miterlimit: 4; fill: rgb(249,250,250); fill-rule: nonzero; opacity: 1;"  transform=" translate(-584.6846788241, -544.7648062389)" d="M 569 599.292786 C 556.334656 599.319519 544.164856 599.162109 532.005981 599.454651 C 526.875366 599.578064 524.651306 597.541321 523.395569 592.66095 C 515.041199 560.191772 516.143005 527.617188 521.720947 494.932831 C 522.29718 491.556152 524.040405 490.076721 527.472046 490.080078 C 567.134705 490.118927 606.797302 490.124695 646.4599 490.069702 C 650.273376 490.064423 651.938782 491.694702 651.939453 495.447021 C 651.945129 528.276917 651.968994 561.106812 652.037903 593.936584 C 652.046875 598.182617 649.81781 599.213257 645.992554 599.205872 C 620.495178 599.156799 594.997559 599.246155 569 599.292786 z" stroke-linecap="round" />
</g>
<g transform="matrix(1 0 0 1 745.0736325499 682.5664043888)" id="ab6Pi5geFoZc6wQRx962s"  >
<path style="stroke: none; stroke-width: 1; stroke-dasharray: none; stroke-linecap: butt; stroke-dashoffset: 0; stroke-linejoin: miter; stroke-miterlimit: 4; fill: rgb(248,249,249); fill-rule: nonzero; opacity: 1;"  transform=" translate(-745.8210357605, -682.9430832895)" d="M 684.851318 722.849976 C 685.803345 696.891235 684.826843 671.410278 685.028809 645.93158 C 685.046021 643.766418 685.068848 641.600159 685.023193 639.435852 C 684.938782 635.430786 686.975037 633.709839 690.863953 633.711365 C 727.840393 633.725586 764.816895 633.685364 801.793213 633.744324 C 807.106384 633.752808 808.009888 635.539001 805.351501 640.837708 C 790.705566 670.030396 770.50946 694.254456 742.384644 711.502747 C 727.608154 720.564819 711.611572 726.548767 695.09259 731.346252 C 687.351868 733.59436 684.682922 731.43335 684.851318 722.849976 z" stroke-linecap="round" />
</g>
<g transform="matrix(1 0 0 1 743.9924959221 408.1872904746)" id="QvhS8VEIwejUlw-k8tSLw"  >
<path style="stroke: none; stroke-width: 1; stroke-dasharray: none; stroke-linecap: butt; stroke-dashoffset: 0; stroke-linejoin: miter; stroke-miterlimit: 4; fill: rgb(248,249,249); fill-rule: nonzero; opacity: 1;"  transform=" translate(-744.7398991327, -408.5639693753)" d="M 685.197388 424.999939 C 685.162415 406.338135 685.114319 388.1763 685.097656 370.014496 C 685.088318 359.858215 686.058594 359.032501 695.668884 361.524017 C 730.43573 370.537567 758.521667 389.84967 781.218689 417.349762 C 789.621765 427.531036 796.708801 438.60495 802.737793 450.348694 C 805.473572 455.677673 805.096924 456.478027 799.30542 456.497559 C 763.315247 456.619049 727.324646 456.618286 691.334778 456.78833 C 686.738037 456.810059 685.099609 454.853088 685.164612 450.4935 C 685.288818 442.164001 685.198608 433.831329 685.197388 424.999939 z" stroke-linecap="round" />
</g>
<g transform="matrix(1 0 0 1 880.4259726579 544.4043817977)" id="FdO1hTs_QDPSRslLs6KRA"  >
<path style="stroke: none; stroke-width: 1; stroke-dasharray: none; stroke-linecap: butt; stroke-dashoffset: 0; stroke-linejoin: miter; stroke-miterlimit: 4; fill: rgb(247,248,248); fill-rule: nonzero; opacity: 1;"  transform=" translate(-881.1733758685, -544.7810606984)" d="M 911.601318 570.585693 C 910.960815 578.184326 910.4198 585.323059 909.731934 592.44751 C 909.138306 598.594788 907.852234 599.466431 901.88739 599.427429 C 887.403076 599.332703 872.917358 599.401062 858.432556 599.472778 C 852.37561 599.502808 851.813171 598.954773 852.565186 592.869629 C 856.489014 561.121338 856.586365 529.439636 851.07373 497.832947 C 849.794556 490.498596 850.173523 490.186859 857.629333 490.181641 C 869.951782 490.173035 882.278137 490.3591 894.594788 490.092133 C 899.519226 489.985413 901.740662 492.07605 903.105652 496.550812 C 910.432617 520.570129 912.629333 545.152344 911.601318 570.585693 z" stroke-linecap="round" />
</g>
<g transform="matrix(1 0 0 1 461.1557549635 544.5260004968)" id="wN3o80dXcsgdmnPYQZT40"  >
<path style="stroke: none; stroke-width: 1; stroke-dasharray: none; stroke-linecap: butt; stroke-dashoffset: 0; stroke-linejoin: miter; stroke-miterlimit: 4; fill: rgb(247,248,248); fill-rule: nonzero; opacity: 1;"  transform=" translate(-461.9031581741, -544.9026793975)" d="M 462.004456 599.05957 C 456.344147 599.202332 451.160156 599.096558 446.027924 599.561768 C 441.461456 599.975769 439.491058 598.374634 438.669708 593.771118 C 433.696198 565.895142 433.654419 538.115356 439.625427 510.390442 C 440.710846 505.350708 442.073639 500.370422 443.143982 495.327789 C 443.939819 491.578491 446.11853 490.141663 449.872742 490.181641 C 460.366333 490.293488 470.86203 490.195374 481.35675 490.226929 C 486.922485 490.243683 487.511749 490.907013 486.756592 496.300812 C 485.393585 506.035889 484.372925 515.795898 483.854004 525.620178 C 482.663025 548.167969 483.470154 570.561829 488.321747 592.703491 C 489.507568 598.115234 488.541534 599.240417 482.990601 599.223999 C 476.161407 599.203857 469.332397 599.11731 462.004456 599.05957 z" stroke-linecap="round" />
</g>
<g transform="matrix(1 0 0 1 366.741963793 912.2023051283)" id="fUsUjhZT6D7HlEX6c1abU"  >
<path style="stroke: none; stroke-width: 1; stroke-dasharray: none; stroke-linecap: butt; stroke-dashoffset: 0; stroke-linejoin: miter; stroke-miterlimit: 4; fill: rgb(247,249,248); fill-rule: nonzero; opacity: 1;"  transform=" translate(-367.4893670036, -912.578984029)" d="M 339 939.844727 C 318.33902 939.827576 298.177887 939.856262 278.01709 939.78479 C 259.80838 939.720215 242.630219 936.053345 227.491623 925.21228 C 215.68335 916.756226 206.837463 905.978516 201.2379 892.556213 C 198.747406 886.586365 199.620209 885.238586 206.270538 885.237183 C 262.421417 885.225281 318.572296 885.240479 374.723175 885.240784 C 417.210632 885.241089 459.69809 885.227844 502.185547 885.228882 C 511.167725 885.229126 512.016357 885.946472 513.265564 894.892883 C 515.320618 909.610413 522.529419 921.807129 531.697815 933.095642 C 533.006287 934.706665 535.764648 936.30188 534.832153 938.34552 C 533.788025 940.633972 530.681824 939.768127 528.447021 939.770081 C 465.464691 939.825317 402.48233 939.832153 339 939.844727 z" stroke-linecap="round" />
</g>
<g transform="matrix(1 0 0 1 954.7716812765 911.9434959486)" id="uOxVwucESqAKclS0T2Taa"  >
<path style="stroke: none; stroke-width: 1; stroke-dasharray: none; stroke-linecap: butt; stroke-dashoffset: 0; stroke-linejoin: miter; stroke-miterlimit: 4; fill: rgb(247,248,248); fill-rule: nonzero; opacity: 1;"  transform=" translate(-955.5190844871, -912.3201748493)" d="M 807.167175 911.05896 C 809.900024 903.982483 811.705139 897.03241 812.580261 889.921448 C 813.063477 885.994812 814.448975 884.814331 818.495972 884.834961 C 868.461548 885.089478 918.428101 885.167236 968.39447 885.227356 C 1016.03418 885.284729 1063.67395 885.26825 1111.313721 885.28363 C 1119.499634 885.286255 1121.381836 887.826782 1117.841309 895.326172 C 1110.909302 910.009766 1100.490479 921.609497 1085.920776 929.133972 C 1070.524292 937.08551 1054.127808 939.718689 1036.823242 939.668579 C 959.867676 939.445801 882.910828 939.701538 805.954407 939.783081 C 802.289795 939.786987 798.625061 939.798279 794.960754 939.766235 C 793.82251 939.756287 792.37262 940.093811 791.735474 938.957458 C 790.913574 937.491577 792.378418 936.553345 793.154236 935.586487 C 799.0401 928.251099 803.675598 920.206299 807.167175 911.05896 z" stroke-linecap="round" />
</g>
<g transform="matrix(1 0 0 1 663.0837432894 921.9434108988)" id="xYzfsmHMQMVwgd_lzkW2F"  >
<path style="stroke: none; stroke-width: 1; stroke-dasharray: none; stroke-linecap: butt; stroke-dashoffset: 0; stroke-linejoin: miter; stroke-miterlimit: 4; fill: rgb(239,241,240); fill-rule: nonzero; opacity: 1;"  transform=" translate(-663.8311465, -922.3200897995)" d="M 752.788452 927.805054 C 744.587524 932.842102 735.964417 934.803894 726.760193 934.794556 C 685.118713 934.752502 643.477112 934.724731 601.835815 934.799683 C 584.623413 934.830688 570.938721 927.901978 560.373108 914.502747 C 559.360962 913.219177 558.095825 912.046265 557.785767 909.840393 C 628.32196 909.840393 698.771057 909.840393 769.876526 909.840393 C 765.436096 917.323059 760.132019 923.261169 752.788452 927.805054 z" stroke-linecap="round" />
</g>
<g transform="matrix(1 0 0 1 269.7177795484 1086.0319446495)" id="5eUdiJFh1rlp1JOI7bk4s"  >
<path style="stroke: none; stroke-width: 1; stroke-dasharray: none; stroke-linecap: butt; stroke-dashoffset: 0; stroke-linejoin: miter; stroke-miterlimit: 4; fill: rgb(248,250,250); fill-rule: nonzero; opacity: 1;"  transform=" translate(-270.465182759, -1086.4086235502)" d="M 257.827881 1128.897217 C 245.696533 1133.417969 233.903854 1137.365112 220.970139 1134.79187 C 217.353195 1134.072266 216.640228 1133.104614 218.222565 1129.656982 C 227.951279 1108.460571 239.205994 1087.985962 248.121216 1066.407715 C 248.69339 1065.022705 249.459229 1063.665039 249.735046 1062.218506 C 252.111008 1049.75769 260.554047 1043.676392 272.063538 1040.739014 C 282.956207 1037.959106 293.99054 1036.435059 305.226898 1037.610962 C 319.123169 1039.065063 325.653839 1047.735229 322.873108 1061.49939 C 320.084015 1075.30481 312.626648 1086.730347 303.082703 1096.79187 C 290.21875 1110.353271 275.377502 1121.232056 257.827881 1128.897217 z" stroke-linecap="round" />
</g>
<g transform="matrix(1 0 0 1 602.1183659408 1181.2299838716)" id="agsSgdyWK0ursrBjbYmht"  >
<path style="stroke: none; stroke-width: 1; stroke-dasharray: none; stroke-linecap: butt; stroke-dashoffset: 0; stroke-linejoin: miter; stroke-miterlimit: 4; fill: rgb(249,249,249); fill-rule: nonzero; opacity: 1;"  transform=" translate(-602.8657691514, -1181.6066627723)" d="M 607.722107 1192.694092 C 604.231812 1197.807495 600.965576 1202.633179 597.642212 1207.419067 C 596.694763 1208.783447 595.68396 1210.133423 594.524414 1211.315552 C 591.228821 1214.675903 587.723083 1218.556274 582.524841 1216.694214 C 577.195801 1214.785278 578.013 1209.537231 577.933289 1205.090332 C 577.808777 1198.144653 579.537964 1191.585205 582.188843 1185.218018 C 585.924438 1176.245728 591.575439 1168.369629 596.764099 1160.268066 C 600.800598 1153.965576 606.849182 1149.726929 613.998291 1147.212036 C 616.391235 1146.370239 618.835876 1145.915771 621.352783 1146.0625 C 627.773499 1146.436523 629.338684 1149.150879 626.330322 1154.750122 C 619.714661 1167.063232 615.750977 1180.671753 607.722107 1192.694092 z" stroke-linecap="round" />
</g>
<g transform="matrix(1 0 0 1 510.1984724772 1181.0824403846)" id="aZXj4eiIUtYRN0C6z4sWs"  >
<path style="stroke: none; stroke-width: 1; stroke-dasharray: none; stroke-linecap: butt; stroke-dashoffset: 0; stroke-linejoin: miter; stroke-miterlimit: 4; fill: rgb(249,249,249); fill-rule: nonzero; opacity: 1;"  transform=" translate(-510.9458756878, -1181.4591192853)" d="M 497.532166 1215.914795 C 490.349365 1218.32019 486.130341 1215.424316 485.934906 1208.270996 C 485.765228 1202.059326 486.829865 1196.020996 488.808868 1190.141968 C 492.943054 1177.860596 499.496948 1166.87561 507.715118 1157.001953 C 513.430359 1150.135376 520.892212 1145.761108 530.30481 1146.202881 C 535.347168 1146.439331 537.154053 1148.638916 535.208862 1152.783203 C 525.634583 1173.18042 518.241821 1194.833496 502.120667 1211.547119 C 500.740082 1212.978394 499.291107 1214.34375 497.532166 1215.914795 z" stroke-linecap="round" />
</g>
<g transform="matrix(1 0 0 1 426.3708970019 1179.9253770223)" id="0rgIimCXHxo2p8HcogmXP"  >
<path style="stroke: none; stroke-width: 1; stroke-dasharray: none; stroke-linecap: butt; stroke-dashoffset: 0; stroke-linejoin: miter; stroke-miterlimit: 4; fill: rgb(249,249,249); fill-rule: nonzero; opacity: 1;"  transform=" translate(-427.1183002125, -1180.302055923)" d="M 400.887085 1205.154053 C 401.101257 1201.180054 401.737793 1197.725952 402.918396 1194.429199 C 408.880432 1177.781006 417.222229 1162.544678 430.107635 1150.175171 C 433.993225 1146.445068 438.515167 1143.606445 444.240326 1143.473022 C 447.876343 1143.388184 450.705231 1144.734741 452.704254 1147.793091 C 453.599396 1149.162598 453.969391 1150.547607 452.739471 1151.901855 C 446.358337 1158.927368 442.867065 1167.602173 438.873077 1176.004639 C 434.366364 1185.485474 429.666626 1194.867676 423.686371 1203.543701 C 420.927521 1207.546265 417.796906 1211.19397 414.052612 1214.310425 C 411.021057 1216.833618 407.688416 1218.055542 403.897461 1216.329468 C 399.97879 1214.545166 400.789185 1210.884033 400.763916 1207.609253 C 400.758789 1206.943848 400.828979 1206.277832 400.887085 1205.154053 z" stroke-linecap="round" />
</g>
<g transform="matrix(1 0 0 1 1083.4913804707 1166.9283034288)" id="OjTT-KFiYDM_cYovcAdzG"  >
<path style="stroke: none; stroke-width: 1; stroke-dasharray: none; stroke-linecap: butt; stroke-dashoffset: 0; stroke-linejoin: miter; stroke-miterlimit: 4; fill: rgb(239,241,240); fill-rule: nonzero; opacity: 1;"  transform=" translate(-1084.2387836813, -1167.3049823295)" d="M 1101.468384 1156.271484 C 1093.414551 1168.748413 1084.387817 1179.662842 1070.439453 1185.246948 C 1069.000488 1185.82312 1067.266968 1187.3927 1065.920898 1185.969849 C 1064.67334 1184.651245 1065.824097 1182.71228 1066.557495 1181.328125 C 1073.236084 1168.723999 1081.36499 1157.350098 1093.963135 1149.893311 C 1094.248901 1149.724243 1094.546143 1149.57312 1094.845459 1149.429321 C 1097.133179 1148.329834 1099.559204 1147.138428 1101.815063 1149.138184 C 1104.263428 1151.308228 1102.710815 1153.689087 1101.468384 1156.271484 z" stroke-linecap="round" />
</g>
<g transform="matrix(1 0 0 1 806.0993613337 1167.0698449143)" id="jErCY37iE6VJ4kceiGw7n"  >
<path style="stroke: none; stroke-width: 1; stroke-dasharray: none; stroke-linecap: butt; stroke-dashoffset: 0; stroke-linejoin: miter; stroke-miterlimit: 4; fill: rgb(239,241,240); fill-rule: nonzero; opacity: 1;"  transform=" translate(-806.8467645443, -1167.446523815)" d="M 824.487915 1149.340576 C 826.054443 1151.317993 825.743164 1153.150024 824.774536 1154.763916 C 816.817322 1168.022583 807.936401 1180.355591 792.424255 1185.708252 C 791.237427 1186.117798 789.827332 1187.376831 788.74939 1186.411255 C 787.408569 1185.210083 788.504211 1183.487061 789.113708 1182.268066 C 795.664978 1169.166138 803.770996 1157.335205 816.831848 1149.802979 C 819.085693 1148.503174 821.543091 1147.023438 824.487915 1149.340576 z" stroke-linecap="round" />
</g>
<g transform="matrix(1 0 0 1 649.0269675226 113.7240842644)" id="MKnodFJpZt30kzNl9mytD"  >
<path style="stroke: none; stroke-width: 1; stroke-dasharray: none; stroke-linecap: butt; stroke-dashoffset: 0; stroke-linejoin: miter; stroke-miterlimit: 4; fill: rgb(69,69,69); fill-rule: nonzero; opacity: 1;"  transform=" translate(-649.7743707332, -114.1007631651)" d="M 661.583069 126.60228 C 653.838135 132.786789 646.407288 133.246094 639.97583 128.178864 C 633.054993 122.726036 631.14679 114.522697 634.887512 106.303818 C 638.027466 99.404823 645.940796 95.370918 653.398376 96.86779 C 666.390869 99.475609 670.953369 115.413025 661.583069 126.60228 z" stroke-linecap="round" />
</g>
</svg>